<?xml version="1.0" encoding="utf-8"?>
<!-- Generator: Adobe Illustrator 16.0.4, SVG Export Plug-In . SVG Version: 6.00 Build 0)  -->
<!DOCTYPE svg PUBLIC "-//W3C//DTD SVG 1.1//EN" "http://www.w3.org/Graphics/SVG/1.1/DTD/svg11.dtd">
<svg version="1.1" id="Layer_1" xmlns="http://www.w3.org/2000/svg" xmlns:xlink="http://www.w3.org/1999/xlink" x="0px" y="0px"
	 width="200px" height="200px" viewBox="0 0 200 200" enable-background="new 0 0 200 200" xml:space="preserve">
<g opacity="0.1">
	<g>
		<g>
			<path fill="#232730" d="M65.356,46.288c-0.618-1.343,0.208-2.687,1.756-2.687h10.54c0.931,0,1.551,0.62,1.757,1.138
				l19.843,44.432h0.72l19.84-44.432c0.207-0.518,0.828-1.138,1.758-1.138h10.539c1.551,0,2.377,1.344,1.758,2.687l-32.037,69.544
				c-0.309,0.618-0.82,1.136-1.753,1.136h-1.031c-0.93,0-1.449-0.518-1.756-1.136L65.356,46.288z"/>
		</g>
		<g>
			<path fill="#232730" d="M133.812,103.885c1.037,0,1.963,0.828,1.963,1.861v24.486c0,19.944-16.223,36.271-36.061,36.271
				c-20.046,0-36.268-16.325-36.268-36.271v-24.486c0-1.033,0.928-1.861,1.963-1.861H133.812z M76.052,128.994
				c0,13.434,10.128,23.25,23.664,23.25c13.435,0,23.562-9.816,23.562-23.25v-11.776H76.052V128.994z"/>
		</g>
		<g>
			<path fill="#232730" d="M99.862,0.604c55.498,0,99.675,44.453,99.675,99.674c0,55.496-44.178,99.119-99.675,99.119
				c-55.225,0-99.4-43.623-99.4-99.119C0.462,45.057,44.638,0.604,99.862,0.604z M99.862,187.247
				c48.315,0,87.524-38.651,87.524-86.97c0-48.32-39.209-87.527-87.524-87.527c-48.318,0-87.251,39.207-87.251,87.527
				C12.611,148.596,51.544,187.247,99.862,187.247z"/>
		</g>
	</g>
</g>
</svg>
